# xmcd
#
# Track frame offsets:
#	150
#	25427
#	69955
#	98757
#	150082
#	184657
#
# Disc length: 2743 seconds
#
# Revision: 0
# Processed by: cddbd v1.5.2PL0 Copyright (c) Steve Scherf et al.
# Submitted via: EasyCDDAExtractor 16.0.8.2
#
DISCID=3b0ab506
DTITLE=Άνευ ερμηνευτού - Τσιτσάνοι διάλογοι-Σ. Ξαρχάκος 2
DYEAR=2004
DGENRE=Ορχηστρική
TTITLE0=Ο νεαρός από τα Τρίκαλαστο Cotton club[Κυριακή γνώρισα]
TTITLE1=Στις σκιές τριών φίλων [Μιά βίλα νά 'χτιζα, Σ.Παγιουμτζής]
TTITLE2=Νυχτερινό παλιού πάθους [Ό,τι κι αν πω δε σε ξεχνώ]
TTITLE3=Η Μαγική ερώτων Μπάρα [Ζωΐτσα μου μικρή]
TTITLE4=Ο κ. Σατί στο ουζερί της Παύλου Μελά[Θα ρωτήσω μαμά σου]
TTITLE5=Όταν χόρευε η Φρίντα [Τρικαλινή τσαχπίνα]
EXTD=
EXTT0=
EXTT1=
EXTT2=
EXTT3=
EXTT4=
EXTT5=
PLAYORDER=
